<svg width="47" height="47" viewBox="0 0 47 47" fill="none" xmlns="http://www.w3.org/2000/svg">
<path d="M27.9673 43.4546C29.7543 45.1921 32.6115 45.1519 34.3489 43.3649L42.4807 35.0011C44.7705 32.6461 44.7175 28.8806 42.3624 26.5909C41.6387 25.8872 40.7479 25.3794 39.7737 25.1151L10.2034 17.0926C9.44395 16.8866 8.9082 17.8264 9.47238 18.3749C9.77423 18.6684 10.2568 18.6616 10.5503 18.3597L18.7493 9.92692C20.4867 8.13991 20.4465 5.28278 18.6595 3.54533C16.8725 1.80788 14.0154 1.84806 12.2779 3.63507L4.14615 11.9988C1.85637 14.3539 1.90932 18.1193 4.26441 20.4091C4.98811 21.1127 5.87898 21.6206 6.85313 21.8849L36.4235 29.9073C37.1829 30.1134 37.7187 29.1736 37.1545 28.6251C36.8526 28.3316 36.37 28.3384 36.0765 28.6402L27.8776 37.073C26.1401 38.86 26.1803 41.7172 27.9673 43.4546Z" fill="#160F0D"/>
<circle cx="29.4174" cy="13.7955" r="4.32608" fill="#160F0D"/>
</svg>
