<svg width="18" height="17" viewBox="0 0 18 17" fill="none" xmlns="http://www.w3.org/2000/svg">
<path d="M11.1357 16.4454C11.8473 17.1372 12.9849 17.1212 13.6767 16.4097L16.9146 13.0795C17.8263 12.1417 17.8052 10.6424 16.8675 9.73071C16.5793 9.45055 16.2246 9.24833 15.8367 9.14309L4.06258 5.94875C3.76019 5.86672 3.54687 6.24091 3.77151 6.45932C3.89171 6.57618 4.08387 6.57347 4.20073 6.45328L7.46534 3.09555C8.15715 2.38401 8.14115 1.24637 7.42961 0.554561C6.71807 -0.137248 5.58043 -0.12125 4.88862 0.590291L1.65075 3.92053C0.739015 4.85826 0.760098 6.35755 1.69784 7.26928C1.98599 7.54945 2.34071 7.75167 2.7286 7.8569L14.5028 11.0512C14.8051 11.1333 15.0185 10.7591 14.7938 10.5407C14.6736 10.4238 14.4815 10.4265 14.3646 10.5467L11.1 13.9044C10.4082 14.616 10.4242 15.7536 11.1357 16.4454Z" fill="#160F0D"/>
</svg>
