<svg width="20" height="20" viewBox="0 0 20 20" fill="none" xmlns="http://www.w3.org/2000/svg">
<path d="M15.8333 9.16683H10.8333V4.16683C10.8333 3.94582 10.7455 3.73385 10.5892 3.57757C10.4329 3.42129 10.2209 3.3335 9.99992 3.3335C9.77891 3.3335 9.56694 3.42129 9.41066 3.57757C9.25438 3.73385 9.16659 3.94582 9.16659 4.16683V9.16683H4.16659C3.94557 9.16683 3.73361 9.25463 3.57733 9.41091C3.42105 9.56719 3.33325 9.77915 3.33325 10.0002C3.33325 10.2212 3.42105 10.4331 3.57733 10.5894C3.73361 10.7457 3.94557 10.8335 4.16659 10.8335H9.16659V15.8335C9.16659 16.0545 9.25438 16.2665 9.41066 16.4228C9.56694 16.579 9.77891 16.6668 9.99992 16.6668C10.2209 16.6668 10.4329 16.579 10.5892 16.4228C10.7455 16.2665 10.8333 16.0545 10.8333 15.8335V10.8335H15.8333C16.0543 10.8335 16.2662 10.7457 16.4225 10.5894C16.5788 10.4331 16.6666 10.2212 16.6666 10.0002C16.6666 9.77915 16.5788 9.56719 16.4225 9.41091C16.2662 9.25463 16.0543 9.16683 15.8333 9.16683Z" fill="#4F4F4F"/>
</svg>
