<svg width="20" height="20" viewBox="0 0 20 20" fill="none" xmlns="http://www.w3.org/2000/svg">
<path d="M15.8334 9.16683H10.8334V4.16683C10.8334 3.94582 10.7456 3.73385 10.5893 3.57757C10.433 3.42129 10.2211 3.3335 10 3.3335C9.77903 3.3335 9.56707 3.42129 9.41079 3.57757C9.2545 3.73385 9.16671 3.94582 9.16671 4.16683V9.16683H4.16671C3.94569 9.16683 3.73373 9.25463 3.57745 9.41091C3.42117 9.56719 3.33337 9.77915 3.33337 10.0002C3.33337 10.2212 3.42117 10.4331 3.57745 10.5894C3.73373 10.7457 3.94569 10.8335 4.16671 10.8335H9.16671V15.8335C9.16671 16.0545 9.2545 16.2665 9.41079 16.4228C9.56707 16.579 9.77903 16.6668 10 16.6668C10.2211 16.6668 10.433 16.579 10.5893 16.4228C10.7456 16.2665 10.8334 16.0545 10.8334 15.8335V10.8335H15.8334C16.0544 10.8335 16.2663 10.7457 16.4226 10.5894C16.5789 10.4331 16.6667 10.2212 16.6667 10.0002C16.6667 9.77915 16.5789 9.56719 16.4226 9.41091C16.2663 9.25463 16.0544 9.16683 15.8334 9.16683Z" fill="#4F4F4F"/>
</svg>
